<svg width="20" height="20" viewBox="0 0 20 20" fill="none" xmlns="http://www.w3.org/2000/svg">
<g clip-path="url(#clip0_137_347)">
<path d="M9.69678 -0.303024C4.17405 -0.303024 -0.303223 4.17425 -0.303223 9.69698C-0.303223 15.2197 4.17405 19.697 9.69678 19.697C15.2195 19.697 19.6968 15.2197 19.6968 9.69698C19.6968 4.17425 15.2195 -0.303024 9.69678 -0.303024ZM9.69678 1.51516C14.2154 1.51516 17.8786 5.17834 17.8786 9.69698C17.8786 14.2156 14.2154 17.8788 9.69678 17.8788C5.17814 17.8788 1.51496 14.2156 1.51496 9.69698C1.51496 5.17834 5.17814 1.51516 9.69678 1.51516ZM13.8063 5.75965C13.5754 5.73302 13.2854 5.79631 12.9612 5.91324C12.3689 6.12688 4.79847 9.3415 4.3612 9.52741C3.9471 9.70377 3.55465 9.89599 3.5542 10.1737C3.5542 10.3692 3.6701 10.4795 3.9901 10.5936C4.32283 10.7127 5.16191 10.9664 5.65736 11.1032C6.13463 11.2346 6.67739 11.1201 6.98193 10.931C7.30421 10.7305 11.028 8.23902 11.2948 8.02084C11.5616 7.80266 11.7749 8.08274 11.5567 8.30138C11.3385 8.52002 8.78228 10.9993 8.445 11.3429C8.03591 11.7602 8.32671 12.1925 8.60125 12.3657C8.91443 12.5634 11.1692 14.0752 11.5087 14.3179C11.8483 14.5606 12.192 14.6703 12.5075 14.6703C12.823 14.6703 12.989 14.2546 13.1458 13.7728C13.3299 13.2087 14.1923 7.58428 14.2982 6.4761C14.3304 6.14019 14.2245 5.9169 14.0167 5.81736C13.9539 5.78725 13.8833 5.76853 13.8063 5.75965Z" fill="black"/>
</g>
<defs>
<clipPath id="clip0_137_347">
<rect width="20" height="20" fill="white"/>
</clipPath>
</defs>
</svg>
