<svg width="50" height="50" viewBox="0 0 50 50" fill="none" xmlns="http://www.w3.org/2000/svg">
<g clip-path="url(#clip0_129_25)">
<path d="M25 50C38.8071 50 50 38.8071 50 25C50 11.1929 38.8071 0 25 0C11.1929 0 0 11.1929 0 25C0 38.8071 11.1929 50 25 50Z" fill="url(#paint0_linear_129_25)"/>
<path d="M37.4761 14.6586C37.6986 13.2202 36.3311 12.0849 35.0522 12.6464L9.58005 23.83C8.66292 24.2327 8.73001 25.622 9.68121 25.9248L14.9341 27.5977C15.9368 27.917 17.0223 27.7518 17.8979 27.147L29.7411 18.9648C30.0982 18.718 30.4875 19.2259 30.1823 19.5404L21.6573 28.3296C20.8304 29.1823 20.9945 30.6271 21.9893 31.2509L31.5339 37.2362C32.6045 37.9075 33.9816 37.2332 34.1818 35.9395L37.4761 14.6586Z" fill="white"/>
</g>
<defs>
<linearGradient id="paint0_linear_129_25" x1="25" y1="0" x2="25" y2="50" gradientUnits="userSpaceOnUse">
<stop stop-color="#37BBFE"/>
<stop offset="1" stop-color="#007DBB"/>
</linearGradient>
<clipPath id="clip0_129_25">
<rect width="50" height="50" fill="white"/>
</clipPath>
</defs>
</svg>
