<svg width="133" height="37" viewBox="0 0 133 37" fill="none" xmlns="http://www.w3.org/2000/svg">
<path d="M0.0340909 36V1.09091H7.41477V29.9148H22.3807V36H0.0340909ZM57.9886 18.5455C57.9886 22.3523 57.267 25.5909 55.8239 28.2614C54.392 30.9318 52.4375 32.9716 49.9602 34.3807C47.4943 35.7784 44.7216 36.4773 41.642 36.4773C38.5398 36.4773 35.7557 35.7727 33.2898 34.3636C30.8239 32.9545 28.875 30.9148 27.4432 28.2443C26.0114 25.5739 25.2955 22.3409 25.2955 18.5455C25.2955 14.7386 26.0114 11.5 27.4432 8.82955C28.875 6.15909 30.8239 4.125 33.2898 2.72727C35.7557 1.31818 38.5398 0.613635 41.642 0.613635C44.7216 0.613635 47.4943 1.31818 49.9602 2.72727C52.4375 4.125 54.392 6.15909 55.8239 8.82955C57.267 11.5 57.9886 14.7386 57.9886 18.5455ZM50.5057 18.5455C50.5057 16.0795 50.1364 14 49.3977 12.3068C48.6705 10.6136 47.642 9.32955 46.3125 8.45455C44.983 7.57955 43.4261 7.14205 41.642 7.14205C39.858 7.14205 38.3011 7.57955 36.9716 8.45455C35.642 9.32955 34.608 10.6136 33.8693 12.3068C33.142 14 32.7784 16.0795 32.7784 18.5455C32.7784 21.0114 33.142 23.0909 33.8693 24.7841C34.608 26.4773 35.642 27.7614 36.9716 28.6364C38.3011 29.5114 39.858 29.9489 41.642 29.9489C43.4261 29.9489 44.983 29.5114 46.3125 28.6364C47.642 27.7614 48.6705 26.4773 49.3977 24.7841C50.1364 23.0909 50.5057 21.0114 50.5057 18.5455ZM86.6037 12.375C86.3651 11.5455 86.0298 10.8125 85.598 10.1761C85.1662 9.52841 84.6378 8.98295 84.0128 8.53977C83.3991 8.08523 82.6946 7.73864 81.8991 7.5C81.1151 7.26136 80.2457 7.14205 79.2912 7.14205C77.5071 7.14205 75.9389 7.58523 74.5866 8.47159C73.2457 9.35795 72.2003 10.6477 71.4503 12.3409C70.7003 14.0227 70.3253 16.0795 70.3253 18.5114C70.3253 20.9432 70.6946 23.0114 71.4332 24.7159C72.1719 26.4205 73.2173 27.7216 74.5696 28.6193C75.9219 29.5057 77.5185 29.9489 79.3594 29.9489C81.0298 29.9489 82.456 29.6534 83.6378 29.0625C84.831 28.4602 85.7401 27.6136 86.3651 26.5227C87.0014 25.4318 87.3196 24.142 87.3196 22.6534L88.8196 22.875H79.8196V17.3182H94.4276V21.7159C94.4276 24.7841 93.7798 27.4205 92.4844 29.625C91.1889 31.8182 89.4048 33.5114 87.1321 34.7045C84.8594 35.8864 82.2571 36.4773 79.3253 36.4773C76.0526 36.4773 73.1776 35.7557 70.7003 34.3125C68.223 32.858 66.2912 30.7955 64.9048 28.125C63.5298 25.4432 62.8423 22.2614 62.8423 18.5795C62.8423 15.75 63.2514 13.2273 64.0696 11.0114C64.8991 8.78409 66.0582 6.89773 67.5469 5.35227C69.0355 3.80682 70.7685 2.63068 72.7457 1.82386C74.723 1.01704 76.8651 0.613635 79.1719 0.613635C81.1491 0.613635 82.9901 0.903408 84.6946 1.48295C86.3991 2.05114 87.9105 2.85795 89.2287 3.90341C90.5582 4.94886 91.6435 6.19318 92.4844 7.63636C93.3253 9.06818 93.8651 10.6477 94.1037 12.375H86.6037ZM132.051 18.5455C132.051 22.3523 131.33 25.5909 129.886 28.2614C128.455 30.9318 126.5 32.9716 124.023 34.3807C121.557 35.7784 118.784 36.4773 115.705 36.4773C112.602 36.4773 109.818 35.7727 107.352 34.3636C104.886 32.9545 102.938 30.9148 101.506 28.2443C100.074 25.5739 99.358 22.3409 99.358 18.5455C99.358 14.7386 100.074 11.5 101.506 8.82955C102.938 6.15909 104.886 4.125 107.352 2.72727C109.818 1.31818 112.602 0.613635 115.705 0.613635C118.784 0.613635 121.557 1.31818 124.023 2.72727C126.5 4.125 128.455 6.15909 129.886 8.82955C131.33 11.5 132.051 14.7386 132.051 18.5455ZM124.568 18.5455C124.568 16.0795 124.199 14 123.46 12.3068C122.733 10.6136 121.705 9.32955 120.375 8.45455C119.045 7.57955 117.489 7.14205 115.705 7.14205C113.92 7.14205 112.364 7.57955 111.034 8.45455C109.705 9.32955 108.67 10.6136 107.932 12.3068C107.205 14 106.841 16.0795 106.841 18.5455C106.841 21.0114 107.205 23.0909 107.932 24.7841C108.67 26.4773 109.705 27.7614 111.034 28.6364C112.364 29.5114 113.92 29.9489 115.705 29.9489C117.489 29.9489 119.045 29.5114 120.375 28.6364C121.705 27.7614 122.733 26.4773 123.46 24.7841C124.199 23.0909 124.568 21.0114 124.568 18.5455Z" fill="white"/>
</svg>
